<svg xmlns="http://www.w3.org/2000/svg" width="96" height="96" viewBox="0 0 96 96">
<circle cx="48" cy="48" r="46" fill="#BAE6FD"/>
<path d="M0 68C20 58 38 62 54 70C68 77 82 76 96 68V96H0V68Z" fill="#FDE68A"/>
<path d="M0 58C26 50 44 58 64 57C78 56 88 52 96 48V72C76 80 58 76 40 68C24 62 12 64 0 70V58Z" fill="#2DD4BF"/>
<circle cx="70" cy="25" r="11" fill="#FBBF24"/>
<path d="M24 76C27 55 33 39 43 26" stroke="#7C2D12" stroke-width="5" stroke-linecap="round"/>
<path d="M41 28C28 26 20 31 15 41C28 41 38 37 41 28Z" fill="#16A34A"/>
<path d="M43 28C53 24 63 27 70 36C57 38 48 36 43 28Z" fill="#22C55E"/>
</svg>