<svg xmlns="http://www.w3.org/2000/svg" width="390" height="844" viewBox="0 0 390 844"><defs><filter id="sh" x="-20%" y="-20%" width="140%" height="160%"><feDropShadow dx="0" dy="6" stdDeviation="8" flood-color="#0F172A" flood-opacity="0.07"/></filter><radialGradient id="fb" cx="42%" cy="38%" r="70%"><stop offset="0%" stop-color="#7DF28F"/><stop offset="55%" stop-color="#17A34A"/><stop offset="100%" stop-color="#076B2D"/></radialGradient><style>.t{font-family:Inter,Arial,sans-serif;fill:#0F172A}.title{font-family:Inter,Arial,sans-serif;font-size:25px;font-weight:900;fill:#0F172A}.h{font-family:Inter,Arial,sans-serif;font-size:18px;font-weight:900;fill:#0F172A}.h2{font-family:Inter,Arial,sans-serif;font-size:14px;font-weight:900;fill:#0F172A}.body{font-family:Inter,Arial,sans-serif;font-size:12px;font-weight:600;fill:#475569}.small{font-family:Inter,Arial,sans-serif;font-size:10px;font-weight:700;fill:#64748B}.money{font-family:Inter,Arial,sans-serif;font-size:42px;font-weight:900;fill:#16A34A}.stroke{stroke:#64748B;stroke-width:2;fill:none;stroke-linecap:round;stroke-linejoin:round}.greenStroke{stroke:#16A34A;stroke-width:2.3;fill:none;stroke-linecap:round;stroke-linejoin:round}</style></defs><rect width="390" height="844" fill="#fff"/><text x="24" y="26" class="t" font-size="13" font-weight="800">9:41</text><g transform="translate(312,14)" fill="#0F172A"><rect x="0" y="8" width="3" height="8" rx="1"/><rect x="6" y="5" width="3" height="11" rx="1"/><rect x="12" y="2" width="3" height="14" rx="1"/><path d="M26 7C31 3 37 3 42 7L39 10C36 8 32 8 29 10Z"/><rect x="50" y="5" width="22" height="12" rx="3" stroke="#0F172A" fill="none" stroke-width="1.5"/></g><text x="118" y="72" class="t" font-size="23" font-weight="900" fill="#07752E">NidhiFlow</text><text x="120" y="88" class="small">Your Money, Your Flow</text><text x="22" y="137" class="h">Good morning, Guest 👋</text><text x="22" y="161" class="body">Let’s make today financially amazing!</text><rect x="270" y="121" width="98" height="36" rx="18" fill="#F0FDF4" stroke="#CDEED3"/><text x="288" y="144" class="small" fill="#166534">✨ Insights</text><rect x="22" y="185" width="346" height="209" rx="22" fill="#fff" stroke="#EEF2F0" filter="url(#sh)"/><text x="40" y="218" class="h2">Family Budget</text><text x="154" y="218" class="t" font-size="16">👨 👩 🧒</text><rect x="238" y="201" width="57" height="25" rx="13" fill="#DCFCE7"/><text x="250" y="217" class="small" fill="#078B32">Shared</text><circle cx="88" cy="292" r="53" fill="none" stroke="#DDF5E2" stroke-width="13"/><circle cx="88" cy="292" r="53" fill="none" stroke="#16A34A" stroke-width="13" stroke-linecap="round" stroke-dasharray="225 333" transform="rotate(-90 88 292)"/><circle cx="88" cy="292" r="33" fill="#F5FFF7"/><text x="77" y="299" class="small" fill="#166534">53%</text><text x="210" y="255" class="h2">Budget</text><text x="315" y="255" class="h2" text-anchor="end">₹50,000</text><text x="210" y="315" class="h2">Spent</text><text x="315" y="315" class="h2" text-anchor="end">₹26,770</text><text x="210" y="376" class="h2">Remaining</text><text x="315" y="376" class="h2" text-anchor="end" fill="#16A34A">₹23,230</text><rect x="22" y="413" width="163" height="69" rx="20" fill="#fff" stroke="#EEF2F0" filter="url(#sh)"/><circle cx="54" cy="447" r="16" fill="#16A34A"/><path d="M54 439V455M46 447H62" stroke="#fff" stroke-width="3" stroke-linecap="round"/><text x="84" y="443" class="h2">Add Expense</text><text x="84" y="462" class="small">Track spending</text><rect x="205" y="413" width="163" height="69" rx="20" fill="#fff" stroke="#EEF2F0" filter="url(#sh)"/><circle cx="237" cy="447" r="16" fill="#16A34A"/><path d="M237 439V455M229 447H245" stroke="#fff" stroke-width="3" stroke-linecap="round"/><text x="267" y="443" class="h2">Add Income</text><text x="267" y="462" class="small">Record earnings</text><rect x="22" y="501" width="346" height="112" rx="22" fill="#fff" stroke="#EEF2F0" filter="url(#sh)"/><text x="40" y="533" class="h2">Goals</text><circle cx="68" cy="577" r="28" fill="#BAE6FD"/><text x="117" y="567" class="h2">Goa Trip 🧳</text><text x="117" y="590" class="body">₹18,000 / ₹40,000</text><rect x="117" y="598" width="174" height="6" rx="3" fill="#E5E7EB"/><rect x="117" y="598" width="78" height="6" rx="3" fill="#16A34A"/><rect x="306" y="565" width="43" height="27" rx="14" fill="#DCFCE7"/><text x="317" y="583" class="small" fill="#166534">45%</text><rect x="22" y="629" width="346" height="110" rx="22" fill="#fff" stroke="#EEF2F0" filter="url(#sh)"/><text x="40" y="660" class="h2">Recent Activity</text><text x="88" y="698" class="h2">Zudio Fashion</text><text x="330" y="704" class="h2" text-anchor="end">- ₹1,250</text><rect x="12" y="784" width="366" height="60" rx="30" fill="#fff" stroke="#EEF2F0" filter="url(#sh)"/><g transform="translate(55,802)"><circle cx="11" cy="13" r="10" fill="none" stroke="#16A34A" stroke-width="2"/><text x="-8" y="43" class="small" fill="#16A34A">Home</text></g><g transform="translate(125,802)"><circle cx="11" cy="13" r="10" fill="none" stroke="#64748B" stroke-width="2"/><text x="-8" y="43" class="small" fill="#64748B">Activity</text></g><g transform="translate(265,802)"><circle cx="11" cy="13" r="10" fill="none" stroke="#64748B" stroke-width="2"/><text x="-8" y="43" class="small" fill="#64748B">Plan</text></g><g transform="translate(335,802)"><circle cx="11" cy="13" r="10" fill="none" stroke="#64748B" stroke-width="2"/><text x="-8" y="43" class="small" fill="#64748B">You</text></g><g transform="translate(153,736)"><circle cx="42" cy="42" r="34" fill="#fff" filter="url(#sh)"/><circle cx="42" cy="42" r="28" fill="url(#fb)"/><ellipse cx="42" cy="42" rx="45" ry="18" fill="none" stroke="#16A34A" stroke-width="2" transform="rotate(20 42 42)"/><ellipse cx="42" cy="42" rx="45" ry="18" fill="none" stroke="#22C55E" stroke-width="2" transform="rotate(-23 42 42)"/><text x="25" y="83" class="small" fill="#16A34A">Flow</text></g></svg>