<svg xmlns="http://www.w3.org/2000/svg" width="390" height="844" viewBox="0 0 390 844"><defs><filter id="sh" x="-20%" y="-20%" width="140%" height="160%"><feDropShadow dx="0" dy="6" stdDeviation="8" flood-color="#0F172A" flood-opacity="0.07"/></filter><radialGradient id="fb" cx="42%" cy="38%" r="70%"><stop offset="0%" stop-color="#7DF28F"/><stop offset="55%" stop-color="#17A34A"/><stop offset="100%" stop-color="#076B2D"/></radialGradient><style>.t{font-family:Inter,Arial,sans-serif;fill:#0F172A}.title{font-family:Inter,Arial,sans-serif;font-size:25px;font-weight:900;fill:#0F172A}.h{font-family:Inter,Arial,sans-serif;font-size:18px;font-weight:900;fill:#0F172A}.h2{font-family:Inter,Arial,sans-serif;font-size:14px;font-weight:900;fill:#0F172A}.body{font-family:Inter,Arial,sans-serif;font-size:12px;font-weight:600;fill:#475569}.small{font-family:Inter,Arial,sans-serif;font-size:10px;font-weight:700;fill:#64748B}.money{font-family:Inter,Arial,sans-serif;font-size:42px;font-weight:900;fill:#16A34A}.stroke{stroke:#64748B;stroke-width:2;fill:none;stroke-linecap:round;stroke-linejoin:round}.greenStroke{stroke:#16A34A;stroke-width:2.3;fill:none;stroke-linecap:round;stroke-linejoin:round}</style></defs><rect width="390" height="844" fill="#fff"/><text x="24" y="26" class="t" font-size="13" font-weight="800">9:41</text><g transform="translate(312,14)" fill="#0F172A"><rect x="0" y="8" width="3" height="8" rx="1"/><rect x="6" y="5" width="3" height="11" rx="1"/><rect x="12" y="2" width="3" height="14" rx="1"/><path d="M26 7C31 3 37 3 42 7L39 10C36 8 32 8 29 10Z"/><rect x="50" y="5" width="22" height="12" rx="3" stroke="#0F172A" fill="none" stroke-width="1.5"/></g><text x="28" y="86" class="title">Activity</text><rect x="28" y="126" width="334" height="42" rx="21" fill="#F8FAFC" stroke="#E5E7EB"/><rect x="28" y="126" width="167" height="42" rx="21" fill="#16A34A"/><text x="112" y="152" class="h2" fill="#fff" text-anchor="middle">Income</text><text x="278" y="152" class="h2" text-anchor="middle">Expense</text><text x="28" y="210" class="h2">Today</text><text x="28" y="490" class="h2">May 12, 2025</text><rect x="28" y="225" width="38" height="38" rx="12" fill="#DCFCE7"/><text x="84" y="247" class="h2">Salary</text><text x="84" y="266" class="body">Job</text><text x="342" y="247" class="h2" fill="#16A34A" text-anchor="end">+ ₹72,450</text><text x="342" y="267" class="body" text-anchor="end">08:30 AM</text><line x1="28" y1="295" x2="362" y2="295" stroke="#EEF2F7"/><rect x="28" y="305" width="38" height="38" rx="12" fill="#DCFCE7"/><text x="84" y="327" class="h2">Freelance Project</text><text x="84" y="346" class="body">Design Work</text><text x="342" y="327" class="h2" fill="#16A34A" text-anchor="end">+ ₹15,000</text><text x="342" y="347" class="body" text-anchor="end">05:20 PM</text><line x1="28" y1="375" x2="362" y2="375" stroke="#EEF2F7"/><rect x="28" y="385" width="38" height="38" rx="12" fill="#DCFCE7"/><text x="84" y="407" class="h2">Interest</text><text x="84" y="426" class="body">Savings Account</text><text x="342" y="407" class="h2" fill="#16A34A" text-anchor="end">+ ₹320</text><text x="342" y="427" class="body" text-anchor="end">11:10 AM</text><line x1="28" y1="455" x2="362" y2="455" stroke="#EEF2F7"/><rect x="28" y="500" width="38" height="38" rx="12" fill="#DCFCE7"/><text x="84" y="522" class="h2">Salary</text><text x="84" y="541" class="body">Job</text><text x="342" y="522" class="h2" fill="#16A34A" text-anchor="end">+ ₹72,450</text><text x="342" y="542" class="body" text-anchor="end">08:30 AM</text><line x1="28" y1="570" x2="362" y2="570" stroke="#EEF2F7"/><rect x="28" y="580" width="38" height="38" rx="12" fill="#DCFCE7"/><text x="84" y="602" class="h2">Freelance Project</text><text x="84" y="621" class="body">Design Work</text><text x="342" y="602" class="h2" fill="#16A34A" text-anchor="end">+ ₹18,000</text><text x="342" y="622" class="body" text-anchor="end">04:15 PM</text><line x1="28" y1="650" x2="362" y2="650" stroke="#EEF2F7"/><rect x="12" y="784" width="366" height="60" rx="30" fill="#fff" stroke="#EEF2F0" filter="url(#sh)"/><g transform="translate(55,802)"><circle cx="11" cy="13" r="10" fill="none" stroke="#64748B" stroke-width="2"/><text x="-8" y="43" class="small" fill="#64748B">Home</text></g><g transform="translate(125,802)"><circle cx="11" cy="13" r="10" fill="none" stroke="#16A34A" stroke-width="2"/><text x="-8" y="43" class="small" fill="#16A34A">Activity</text></g><g transform="translate(265,802)"><circle cx="11" cy="13" r="10" fill="none" stroke="#64748B" stroke-width="2"/><text x="-8" y="43" class="small" fill="#64748B">Plan</text></g><g transform="translate(335,802)"><circle cx="11" cy="13" r="10" fill="none" stroke="#64748B" stroke-width="2"/><text x="-8" y="43" class="small" fill="#64748B">You</text></g><g transform="translate(153,736)"><circle cx="42" cy="42" r="34" fill="#fff" filter="url(#sh)"/><circle cx="42" cy="42" r="28" fill="url(#fb)"/><ellipse cx="42" cy="42" rx="45" ry="18" fill="none" stroke="#16A34A" stroke-width="2" transform="rotate(20 42 42)"/><ellipse cx="42" cy="42" rx="45" ry="18" fill="none" stroke="#22C55E" stroke-width="2" transform="rotate(-23 42 42)"/><text x="25" y="83" class="small" fill="#16A34A">Flow</text></g></svg>