<svg xmlns="http://www.w3.org/2000/svg" width="390" height="844" viewBox="0 0 390 844"><defs><filter id="sh" x="-20%" y="-20%" width="140%" height="160%"><feDropShadow dx="0" dy="6" stdDeviation="8" flood-color="#0F172A" flood-opacity="0.07"/></filter><radialGradient id="fb" cx="42%" cy="38%" r="70%"><stop offset="0%" stop-color="#7DF28F"/><stop offset="55%" stop-color="#17A34A"/><stop offset="100%" stop-color="#076B2D"/></radialGradient><style>.t{font-family:Inter,Arial,sans-serif;fill:#0F172A}.title{font-family:Inter,Arial,sans-serif;font-size:25px;font-weight:900;fill:#0F172A}.h{font-family:Inter,Arial,sans-serif;font-size:18px;font-weight:900;fill:#0F172A}.h2{font-family:Inter,Arial,sans-serif;font-size:14px;font-weight:900;fill:#0F172A}.body{font-family:Inter,Arial,sans-serif;font-size:12px;font-weight:600;fill:#475569}.small{font-family:Inter,Arial,sans-serif;font-size:10px;font-weight:700;fill:#64748B}.money{font-family:Inter,Arial,sans-serif;font-size:42px;font-weight:900;fill:#16A34A}.stroke{stroke:#64748B;stroke-width:2;fill:none;stroke-linecap:round;stroke-linejoin:round}.greenStroke{stroke:#16A34A;stroke-width:2.3;fill:none;stroke-linecap:round;stroke-linejoin:round}</style></defs><rect width="390" height="844" fill="#fff"/><text x="24" y="26" class="t" font-size="13" font-weight="800">9:41</text><g transform="translate(312,14)" fill="#0F172A"><rect x="0" y="8" width="3" height="8" rx="1"/><rect x="6" y="5" width="3" height="11" rx="1"/><rect x="12" y="2" width="3" height="14" rx="1"/><path d="M26 7C31 3 37 3 42 7L39 10C36 8 32 8 29 10Z"/><rect x="50" y="5" width="22" height="12" rx="3" stroke="#0F172A" fill="none" stroke-width="1.5"/></g><text x="28" y="86" class="title">Plan</text><rect x="22" y="112" width="105" height="42" rx="21" fill="#16A34A"/><text x="74" y="138" class="h2" fill="#fff" text-anchor="middle">Monthly</text><rect x="142" y="112" width="105" height="42" rx="21" fill="#F1F5F9"/><text x="195" y="138" class="h2" text-anchor="middle" fill="#64748B">Budget</text><rect x="263" y="112" width="105" height="42" rx="21" fill="#F1F5F9"/><text x="316" y="138" class="h2" text-anchor="middle" fill="#64748B">Bills</text><text x="195" y="195" class="title" text-anchor="middle">May 2025</text><rect x="22" y="225" width="346" height="210" rx="22" fill="#fff" stroke="#EEF2F0" filter="url(#sh)"/><text x="42" y="260" class="h">Monthly Budget</text><text x="42" y="310" class="money" fill="#0F172A">₹50,000</text><text x="320" y="310" class="money" font-size="34" fill="#16A34A" text-anchor="end">53%</text><rect x="42" y="360" width="286" height="8" rx="4" fill="#E5E7EB"/><rect x="42" y="360" width="151" height="8" rx="4" fill="#16A34A"/><text x="42" y="405" class="body">Spent</text><text x="322" y="405" class="h2" text-anchor="end">₹26,770</text><text x="42" y="425" class="body">Remaining</text><text x="322" y="425" class="h2" text-anchor="end">₹23,230</text><text x="22" y="480" class="h">Budget by Category</text><circle cx="55" cy="525" r="24" fill="#E0F2FE"/><text x="96" y="517" class="h2">Home</text><text x="96" y="540" class="body">₹12,000 / ₹20,000</text><rect x="96" y="553" width="170" height="6" rx="3" fill="#E5E7EB"/><rect x="96" y="553" width="102" height="6" rx="3" fill="#16A34A"/><rect x="302" y="511" width="48" height="26" rx="13" fill="#DCFCE7"/><text x="326" y="528" class="small" text-anchor="middle" fill="#166534">60%</text><circle cx="55" cy="605" r="24" fill="#E0F2FE"/><text x="96" y="597" class="h2">Food & Drinks</text><text x="96" y="620" class="body">₹7,500 / ₹12,000</text><rect x="96" y="633" width="170" height="6" rx="3" fill="#E5E7EB"/><rect x="96" y="633" width="102" height="6" rx="3" fill="#16A34A"/><rect x="302" y="591" width="48" height="26" rx="13" fill="#DCFCE7"/><text x="326" y="608" class="small" text-anchor="middle" fill="#166534">62%</text><circle cx="55" cy="685" r="24" fill="#E0F2FE"/><text x="96" y="677" class="h2">Transport</text><text x="96" y="700" class="body">₹3,500 / ₹6,000</text><rect x="96" y="713" width="170" height="6" rx="3" fill="#E5E7EB"/><rect x="96" y="713" width="102" height="6" rx="3" fill="#16A34A"/><rect x="302" y="671" width="48" height="26" rx="13" fill="#DCFCE7"/><text x="326" y="688" class="small" text-anchor="middle" fill="#166534">58%</text><rect x="12" y="784" width="366" height="60" rx="30" fill="#fff" stroke="#EEF2F0" filter="url(#sh)"/><g transform="translate(55,802)"><circle cx="11" cy="13" r="10" fill="none" stroke="#64748B" stroke-width="2"/><text x="-8" y="43" class="small" fill="#64748B">Home</text></g><g transform="translate(125,802)"><circle cx="11" cy="13" r="10" fill="none" stroke="#64748B" stroke-width="2"/><text x="-8" y="43" class="small" fill="#64748B">Activity</text></g><g transform="translate(265,802)"><circle cx="11" cy="13" r="10" fill="none" stroke="#16A34A" stroke-width="2"/><text x="-8" y="43" class="small" fill="#16A34A">Plan</text></g><g transform="translate(335,802)"><circle cx="11" cy="13" r="10" fill="none" stroke="#64748B" stroke-width="2"/><text x="-8" y="43" class="small" fill="#64748B">You</text></g><g transform="translate(153,736)"><circle cx="42" cy="42" r="34" fill="#fff" filter="url(#sh)"/><circle cx="42" cy="42" r="28" fill="url(#fb)"/><ellipse cx="42" cy="42" rx="45" ry="18" fill="none" stroke="#16A34A" stroke-width="2" transform="rotate(20 42 42)"/><ellipse cx="42" cy="42" rx="45" ry="18" fill="none" stroke="#22C55E" stroke-width="2" transform="rotate(-23 42 42)"/><text x="25" y="83" class="small" fill="#16A34A">Flow</text></g></svg>