<svg xmlns="http://www.w3.org/2000/svg" width="390" height="844" viewBox="0 0 390 844"><defs><filter id="sh" x="-20%" y="-20%" width="140%" height="160%"><feDropShadow dx="0" dy="6" stdDeviation="8" flood-color="#0F172A" flood-opacity="0.07"/></filter><radialGradient id="fb" cx="42%" cy="38%" r="70%"><stop offset="0%" stop-color="#7DF28F"/><stop offset="55%" stop-color="#17A34A"/><stop offset="100%" stop-color="#076B2D"/></radialGradient><style>.t{font-family:Inter,Arial,sans-serif;fill:#0F172A}.title{font-family:Inter,Arial,sans-serif;font-size:25px;font-weight:900;fill:#0F172A}.h{font-family:Inter,Arial,sans-serif;font-size:18px;font-weight:900;fill:#0F172A}.h2{font-family:Inter,Arial,sans-serif;font-size:14px;font-weight:900;fill:#0F172A}.body{font-family:Inter,Arial,sans-serif;font-size:12px;font-weight:600;fill:#475569}.small{font-family:Inter,Arial,sans-serif;font-size:10px;font-weight:700;fill:#64748B}.money{font-family:Inter,Arial,sans-serif;font-size:42px;font-weight:900;fill:#16A34A}.stroke{stroke:#64748B;stroke-width:2;fill:none;stroke-linecap:round;stroke-linejoin:round}.greenStroke{stroke:#16A34A;stroke-width:2.3;fill:none;stroke-linecap:round;stroke-linejoin:round}</style></defs><rect width="390" height="844" fill="#fff"/><text x="24" y="26" class="t" font-size="13" font-weight="800">9:41</text><g transform="translate(312,14)" fill="#0F172A"><rect x="0" y="8" width="3" height="8" rx="1"/><rect x="6" y="5" width="3" height="11" rx="1"/><rect x="12" y="2" width="3" height="14" rx="1"/><path d="M26 7C31 3 37 3 42 7L39 10C36 8 32 8 29 10Z"/><rect x="50" y="5" width="22" height="12" rx="3" stroke="#0F172A" fill="none" stroke-width="1.5"/></g><text x="28" y="86" class="title">Reports</text><rect x="28" y="112" width="86" height="36" rx="18" fill="#16A34A"/><text x="71" y="135" class="h2" fill="#fff" text-anchor="middle">This Month</text><text x="28" y="196" class="h">May 2025⌄</text><rect x="22" y="225" width="106" height="86" rx="16" fill="#fff" stroke="#EEF2F0" filter="url(#sh)"/><text x="36" y="260" class="body">Total Income</text><text x="36" y="290" class="h" fill="#16A34A">₹72,450</text><rect x="144" y="225" width="106" height="86" rx="16" fill="#fff" stroke="#EEF2F0" filter="url(#sh)"/><text x="158" y="260" class="body">Total Expense</text><text x="158" y="290" class="h" fill="#0F172A">₹26,770</text><rect x="266" y="225" width="106" height="86" rx="16" fill="#fff" stroke="#EEF2F0" filter="url(#sh)"/><text x="280" y="260" class="body">Net Savings</text><text x="280" y="290" class="h" fill="#16A34A">₹45,680</text><text x="28" y="360" class="h">Expenses by Category</text><circle cx="105" cy="465" r="68" fill="none" stroke="#1D4ED8" stroke-width="32"/><circle cx="105" cy="465" r="34" fill="#fff"/><circle cx="205" cy="390" r="5" fill="#16A34A"/><text x="222" y="394" class="body">Shopping</text><text x="318" y="394" class="body" text-anchor="end">35%</text><text x="362" y="394" class="body" text-anchor="end">₹8,370</text><circle cx="205" cy="426" r="5" fill="#16A34A"/><text x="222" y="430" class="body">Food & Drinks</text><text x="318" y="430" class="body" text-anchor="end">25%</text><text x="362" y="430" class="body" text-anchor="end">₹6,690</text><circle cx="205" cy="462" r="5" fill="#16A34A"/><text x="222" y="466" class="body">Home</text><text x="318" y="466" class="body" text-anchor="end">20%</text><text x="362" y="466" class="body" text-anchor="end">₹5,350</text><circle cx="205" cy="498" r="5" fill="#16A34A"/><text x="222" y="502" class="body">Transport</text><text x="318" y="502" class="body" text-anchor="end">10%</text><text x="362" y="502" class="body" text-anchor="end">₹2,680</text><circle cx="205" cy="534" r="5" fill="#16A34A"/><text x="222" y="538" class="body">Others</text><text x="318" y="538" class="body" text-anchor="end">10%</text><text x="362" y="538" class="body" text-anchor="end">₹2,680</text><text x="28" y="620" class="h">Recent Transactions</text><rect x="28" y="642" width="334" height="96" rx="18" fill="#fff" stroke="#EEF2F0" filter="url(#sh)"/><text x="70" y="675" class="h2">Salary</text><text x="318" y="675" class="h2" fill="#16A34A" text-anchor="end">+ ₹72,450</text><text x="70" y="720" class="h2">Zudio Fashion</text><text x="318" y="720" class="h2" text-anchor="end">- ₹1,250</text><rect x="12" y="784" width="366" height="60" rx="30" fill="#fff" stroke="#EEF2F0" filter="url(#sh)"/><g transform="translate(55,802)"><circle cx="11" cy="13" r="10" fill="none" stroke="#64748B" stroke-width="2"/><text x="-8" y="43" class="small" fill="#64748B">Home</text></g><g transform="translate(125,802)"><circle cx="11" cy="13" r="10" fill="none" stroke="#64748B" stroke-width="2"/><text x="-8" y="43" class="small" fill="#64748B">Activity</text></g><g transform="translate(265,802)"><circle cx="11" cy="13" r="10" fill="none" stroke="#16A34A" stroke-width="2"/><text x="-8" y="43" class="small" fill="#16A34A">Plan</text></g><g transform="translate(335,802)"><circle cx="11" cy="13" r="10" fill="none" stroke="#64748B" stroke-width="2"/><text x="-8" y="43" class="small" fill="#64748B">You</text></g><g transform="translate(153,736)"><circle cx="42" cy="42" r="34" fill="#fff" filter="url(#sh)"/><circle cx="42" cy="42" r="28" fill="url(#fb)"/><ellipse cx="42" cy="42" rx="45" ry="18" fill="none" stroke="#16A34A" stroke-width="2" transform="rotate(20 42 42)"/><ellipse cx="42" cy="42" rx="45" ry="18" fill="none" stroke="#22C55E" stroke-width="2" transform="rotate(-23 42 42)"/><text x="25" y="83" class="small" fill="#16A34A">Flow</text></g></svg>