<svg xmlns="http://www.w3.org/2000/svg" width="390" height="844" viewBox="0 0 390 844"><defs><filter id="sh" x="-20%" y="-20%" width="140%" height="160%"><feDropShadow dx="0" dy="6" stdDeviation="8" flood-color="#0F172A" flood-opacity="0.07"/></filter><radialGradient id="fb" cx="42%" cy="38%" r="70%"><stop offset="0%" stop-color="#7DF28F"/><stop offset="55%" stop-color="#17A34A"/><stop offset="100%" stop-color="#076B2D"/></radialGradient><style>.t{font-family:Inter,Arial,sans-serif;fill:#0F172A}.title{font-family:Inter,Arial,sans-serif;font-size:25px;font-weight:900;fill:#0F172A}.h{font-family:Inter,Arial,sans-serif;font-size:18px;font-weight:900;fill:#0F172A}.h2{font-family:Inter,Arial,sans-serif;font-size:14px;font-weight:900;fill:#0F172A}.body{font-family:Inter,Arial,sans-serif;font-size:12px;font-weight:600;fill:#475569}.small{font-family:Inter,Arial,sans-serif;font-size:10px;font-weight:700;fill:#64748B}.money{font-family:Inter,Arial,sans-serif;font-size:42px;font-weight:900;fill:#16A34A}.stroke{stroke:#64748B;stroke-width:2;fill:none;stroke-linecap:round;stroke-linejoin:round}.greenStroke{stroke:#16A34A;stroke-width:2.3;fill:none;stroke-linecap:round;stroke-linejoin:round}</style></defs><rect width="390" height="844" fill="#fff"/><text x="24" y="26" class="t" font-size="13" font-weight="800">9:41</text><g transform="translate(312,14)" fill="#0F172A"><rect x="0" y="8" width="3" height="8" rx="1"/><rect x="6" y="5" width="3" height="11" rx="1"/><rect x="12" y="2" width="3" height="14" rx="1"/><path d="M26 7C31 3 37 3 42 7L39 10C36 8 32 8 29 10Z"/><rect x="50" y="5" width="22" height="12" rx="3" stroke="#0F172A" fill="none" stroke-width="1.5"/></g><text x="28" y="86" class="title">Goals</text><text x="340" y="86" class="title" fill="#16A34A">+</text><text x="28" y="130" class="h">Your Goals</text><rect x="22" y="180" width="346" height="86" rx="20" fill="#fff" stroke="#EEF2F0" filter="url(#sh)"/><text x="88" y="215" class="h2">Goa Trip 🧳</text><text x="88" y="238" class="body">₹18,000 / ₹40,000</text><rect x="88" y="249" width="160" height="6" rx="3" fill="#E5E7EB"/><rect x="88" y="249" width="80" height="6" rx="3" fill="#16A34A"/><rect x="300" y="210" width="44" height="26" rx="13" fill="#DCFCE7"/><text x="322" y="227" class="small" fill="#166534" text-anchor="middle">45%</text><rect x="22" y="280" width="346" height="86" rx="20" fill="#fff" stroke="#EEF2F0" filter="url(#sh)"/><text x="88" y="315" class="h2">New Laptop 💻</text><text x="88" y="338" class="body">₹22,500 / ₹60,000</text><rect x="88" y="349" width="160" height="6" rx="3" fill="#E5E7EB"/><rect x="88" y="349" width="80" height="6" rx="3" fill="#16A34A"/><rect x="300" y="310" width="44" height="26" rx="13" fill="#DCFCE7"/><text x="322" y="327" class="small" fill="#166534" text-anchor="middle">38%</text><rect x="22" y="380" width="346" height="86" rx="20" fill="#fff" stroke="#EEF2F0" filter="url(#sh)"/><text x="88" y="415" class="h2">Emergency Fund 🛡️</text><text x="88" y="438" class="body">₹35,000 / ₹1,00,000</text><rect x="88" y="449" width="160" height="6" rx="3" fill="#E5E7EB"/><rect x="88" y="449" width="80" height="6" rx="3" fill="#16A34A"/><rect x="300" y="410" width="44" height="26" rx="13" fill="#DCFCE7"/><text x="322" y="427" class="small" fill="#166534" text-anchor="middle">35%</text><rect x="12" y="784" width="366" height="60" rx="30" fill="#fff" stroke="#EEF2F0" filter="url(#sh)"/><g transform="translate(55,802)"><circle cx="11" cy="13" r="10" fill="none" stroke="#64748B" stroke-width="2"/><text x="-8" y="43" class="small" fill="#64748B">Home</text></g><g transform="translate(125,802)"><circle cx="11" cy="13" r="10" fill="none" stroke="#64748B" stroke-width="2"/><text x="-8" y="43" class="small" fill="#64748B">Activity</text></g><g transform="translate(265,802)"><circle cx="11" cy="13" r="10" fill="none" stroke="#64748B" stroke-width="2"/><text x="-8" y="43" class="small" fill="#64748B">Plan</text></g><g transform="translate(335,802)"><circle cx="11" cy="13" r="10" fill="none" stroke="#16A34A" stroke-width="2"/><text x="-8" y="43" class="small" fill="#16A34A">You</text></g><g transform="translate(153,736)"><circle cx="42" cy="42" r="34" fill="#fff" filter="url(#sh)"/><circle cx="42" cy="42" r="28" fill="url(#fb)"/><ellipse cx="42" cy="42" rx="45" ry="18" fill="none" stroke="#16A34A" stroke-width="2" transform="rotate(20 42 42)"/><ellipse cx="42" cy="42" rx="45" ry="18" fill="none" stroke="#22C55E" stroke-width="2" transform="rotate(-23 42 42)"/><text x="25" y="83" class="small" fill="#16A34A">Flow</text></g></svg>