<svg xmlns="http://www.w3.org/2000/svg" width="390" height="844" viewBox="0 0 390 844"><defs><filter id="sh" x="-20%" y="-20%" width="140%" height="160%"><feDropShadow dx="0" dy="6" stdDeviation="8" flood-color="#0F172A" flood-opacity="0.07"/></filter><radialGradient id="fb" cx="42%" cy="38%" r="70%"><stop offset="0%" stop-color="#7DF28F"/><stop offset="55%" stop-color="#17A34A"/><stop offset="100%" stop-color="#076B2D"/></radialGradient><style>.t{font-family:Inter,Arial,sans-serif;fill:#0F172A}.title{font-family:Inter,Arial,sans-serif;font-size:25px;font-weight:900;fill:#0F172A}.h{font-family:Inter,Arial,sans-serif;font-size:18px;font-weight:900;fill:#0F172A}.h2{font-family:Inter,Arial,sans-serif;font-size:14px;font-weight:900;fill:#0F172A}.body{font-family:Inter,Arial,sans-serif;font-size:12px;font-weight:600;fill:#475569}.small{font-family:Inter,Arial,sans-serif;font-size:10px;font-weight:700;fill:#64748B}.money{font-family:Inter,Arial,sans-serif;font-size:42px;font-weight:900;fill:#16A34A}.stroke{stroke:#64748B;stroke-width:2;fill:none;stroke-linecap:round;stroke-linejoin:round}.greenStroke{stroke:#16A34A;stroke-width:2.3;fill:none;stroke-linecap:round;stroke-linejoin:round}</style></defs><rect width="390" height="844" fill="#fff"/><text x="24" y="26" class="t" font-size="13" font-weight="800">9:41</text><g transform="translate(312,14)" fill="#0F172A"><rect x="0" y="8" width="3" height="8" rx="1"/><rect x="6" y="5" width="3" height="11" rx="1"/><rect x="12" y="2" width="3" height="14" rx="1"/><path d="M26 7C31 3 37 3 42 7L39 10C36 8 32 8 29 10Z"/><rect x="50" y="5" width="22" height="12" rx="3" stroke="#0F172A" fill="none" stroke-width="1.5"/></g><text x="28" y="86" class="title">AI Assistant</text><circle cx="195" cy="235" r="105" fill="#F0FDF4"/><rect x="150" y="190" width="90" height="58" rx="26" fill="#0F172A"/><circle cx="175" cy="218" r="7" fill="#86EFAC"/><circle cx="215" cy="218" r="7" fill="#86EFAC"/><path d="M181 236Q195 248 209 236" stroke="#86EFAC" stroke-width="4" fill="none"/><text x="195" y="360" class="title" text-anchor="middle">AI Assistant</text><text x="195" y="397" class="title" text-anchor="middle" fill="#16A34A">Coming Soon!</text><text x="195" y="435" class="body" text-anchor="middle">Smart insights and natural conversations are on the way.</text><rect x="36" y="500" width="318" height="180" rx="22" fill="#F8FFF9" stroke="#DDF5E2"/><text x="58" y="532" class="h">What you can expect</text><text x="100" y="565" class="h2">Personalized Insights</text><text x="100" y="600" class="h2">Savings Recommendations</text><text x="100" y="635" class="h2">Smart Alerts</text><text x="100" y="670" class="h2">Natural Conversations</text><rect x="54" y="706" width="282" height="46" rx="23" fill="#16A34A"/><text x="195" y="735" class="h2" fill="#fff" text-anchor="middle">Notify Me When It’s Ready</text><rect x="12" y="784" width="366" height="60" rx="30" fill="#fff" stroke="#EEF2F0" filter="url(#sh)"/><g transform="translate(55,802)"><circle cx="11" cy="13" r="10" fill="none" stroke="#64748B" stroke-width="2"/><text x="-8" y="43" class="small" fill="#64748B">Home</text></g><g transform="translate(125,802)"><circle cx="11" cy="13" r="10" fill="none" stroke="#64748B" stroke-width="2"/><text x="-8" y="43" class="small" fill="#64748B">Activity</text></g><g transform="translate(265,802)"><circle cx="11" cy="13" r="10" fill="none" stroke="#64748B" stroke-width="2"/><text x="-8" y="43" class="small" fill="#64748B">Plan</text></g><g transform="translate(335,802)"><circle cx="11" cy="13" r="10" fill="none" stroke="#64748B" stroke-width="2"/><text x="-8" y="43" class="small" fill="#64748B">You</text></g><g transform="translate(153,736)"><circle cx="42" cy="42" r="34" fill="#fff" filter="url(#sh)"/><circle cx="42" cy="42" r="28" fill="url(#fb)"/><ellipse cx="42" cy="42" rx="45" ry="18" fill="none" stroke="#16A34A" stroke-width="2" transform="rotate(20 42 42)"/><ellipse cx="42" cy="42" rx="45" ry="18" fill="none" stroke="#22C55E" stroke-width="2" transform="rotate(-23 42 42)"/><text x="25" y="83" class="small" fill="#16A34A">Flow</text></g></svg>