<svg xmlns="http://www.w3.org/2000/svg" width="390" height="844" viewBox="0 0 390 844">
<rect width="390" height="844" rx="28" fill="#F7F8FC"/>
<rect x="20" y="24" width="350" height="796" rx="24" fill="white" stroke="#D9DDE8"/>
<text x="36" y="64" font-family="Arial" font-size="22" font-weight="700" fill="#1D2433">Dashboard</text>

<rect x="36" y="88" width="318" height="92" rx="16" fill="#FFFFFF" stroke="#D9DDE8"/>
<text x="52" y="116" font-family="Arial" font-size="15" font-weight="700" fill="#1D2433">Current Balance</text>
<text x="52" y="142" font-family="Arial" font-size="13" font-weight="400" fill="#596174">₹24,500 available</text>

<rect x="52" y="150" width="130" height="10" rx="5" fill="#DDE7FF"/><rect x="52" y="150" width="88" height="10" rx="5" fill="#4263EB"/>

<rect x="36" y="200" width="150" height="92" rx="16" fill="#FFFFFF" stroke="#D9DDE8"/>
<text x="52" y="228" font-family="Arial" font-size="15" font-weight="700" fill="#1D2433">Income</text>
<text x="52" y="254" font-family="Arial" font-size="13" font-weight="400" fill="#596174">₹42,000</text>


<rect x="204" y="200" width="150" height="92" rx="16" fill="#FFFFFF" stroke="#D9DDE8"/>
<text x="220" y="228" font-family="Arial" font-size="15" font-weight="700" fill="#1D2433">Expense</text>
<text x="220" y="254" font-family="Arial" font-size="13" font-weight="400" fill="#596174">₹17,500</text>


<rect x="36" y="312" width="318" height="110" rx="16" fill="#FFFFFF" stroke="#D9DDE8"/>
<text x="52" y="340" font-family="Arial" font-size="15" font-weight="700" fill="#1D2433">Budget Progress</text>
<text x="52" y="366" font-family="Arial" font-size="13" font-weight="400" fill="#596174">68% used this month</text>

<rect x="52" y="380" width="270" height="12" rx="6" fill="#ECEFF6"/><rect x="52" y="380" width="184" height="12" rx="6" fill="#12B886"/>

<rect x="36" y="442" width="318" height="110" rx="16" fill="#FFFFFF" stroke="#D9DDE8"/>
<text x="52" y="470" font-family="Arial" font-size="15" font-weight="700" fill="#1D2433">Savings Goal</text>
<text x="52" y="496" font-family="Arial" font-size="13" font-weight="400" fill="#596174">Vacation Fund: 45%</text>

<rect x="52" y="510" width="270" height="12" rx="6" fill="#ECEFF6"/><rect x="52" y="510" width="122" height="12" rx="6" fill="#F59F00"/>

<rect x="36" y="572" width="318" height="126" rx="16" fill="#FFFFFF" stroke="#D9DDE8"/>
<text x="52" y="600" font-family="Arial" font-size="15" font-weight="700" fill="#1D2433">Recent Transactions</text>
<text x="52" y="626" font-family="Arial" font-size="13" font-weight="400" fill="#596174">Groceries • Transport • Salary</text>

<rect x="52" y="718" width="86" height="44" rx="14" fill="#4263EB"/><text x="72" y="746" font-family="Arial" font-size="13" font-weight="700" fill="white">Expense</text>
<rect x="152" y="718" width="86" height="44" rx="14" fill="#E7F5FF"/><text x="178" y="746" font-family="Arial" font-size="13" font-weight="700" fill="#1C7ED6">Income</text>
<rect x="252" y="718" width="86" height="44" rx="14" fill="#FFF4E6"/><text x="280" y="746" font-family="Arial" font-size="13" font-weight="700" fill="#E67700">Goal</text>
</svg>